<?xml version="1.0" encoding="utf-8" standalone="no"?>
<!DOCTYPE svg PUBLIC "-//W3C//DTD SVG 1.1//EN"
  "http://www.w3.org/Graphics/SVG/1.1/DTD/svg11.dtd">
<svg xmlns:xlink="http://www.w3.org/1999/xlink" width="709.41625pt" height="203.2275pt" viewBox="0 0 709.41625 203.2275" xmlns="http://www.w3.org/2000/svg" version="1.1">
 <metadata>
  <rdf:RDF xmlns:dc="http://purl.org/dc/elements/1.1/" xmlns:cc="http://creativecommons.org/ns#" xmlns:rdf="http://www.w3.org/1999/02/22-rdf-syntax-ns#">
   <cc:Work>
    <dc:type rdf:resource="http://purl.org/dc/dcmitype/StillImage"/>
    <dc:date>2024-01-23T14:22:11.520357</dc:date>
    <dc:format>image/svg+xml</dc:format>
    <dc:creator>
     <cc:Agent>
      <dc:title>Matplotlib v3.8.1, https://matplotlib.org/</dc:title>
     </cc:Agent>
    </dc:creator>
   </cc:Work>
  </rdf:RDF>
 </metadata>
 <defs>
  <style type="text/css">*{stroke-linejoin: round; stroke-linecap: butt}</style>
 </defs>
 <g id="figure_1">
  <g id="patch_1">
   <path d="M 0 203.2275 
L 709.41625 203.2275 
L 709.41625 0 
L 0 0 
z
" style="fill: #ffffff"/>
  </g>
  <g id="axes_1">
   <g id="patch_2">
    <path d="M 55.615625 174.82 
L 549.075625 174.82 
L 549.075625 7.2 
L 55.615625 7.2 
z
" style="fill: #ffffff"/>
   </g>
   <g id="matplotlib.axis_1">
    <g id="xtick_1">
     <g id="text_1">
      <!-- IHDP -->
      <g style="fill: #262626" transform="translate(80.105104 193.438125) scale(0.12 -0.12)">
       <defs>
        <path id="DejaVuSans-Bold-49" d="M 588 4666 
L 1791 4666 
L 1791 0 
L 588 0 
L 588 4666 
z
" transform="scale(0.015625)"/>
        <path id="DejaVuSans-Bold-48" d="M 588 4666 
L 1791 4666 
L 1791 2888 
L 3566 2888 
L 3566 4666 
L 4769 4666 
L 4769 0 
L 3566 0 
L 3566 1978 
L 1791 1978 
L 1791 0 
L 588 0 
L 588 4666 
z
" transform="scale(0.015625)"/>
        <path id="DejaVuSans-Bold-44" d="M 1791 3756 
L 1791 909 
L 2222 909 
Q 2959 909 3348 1275 
Q 3738 1641 3738 2338 
Q 3738 3031 3350 3393 
Q 2963 3756 2222 3756 
L 1791 3756 
z
M 588 4666 
L 1856 4666 
Q 2919 4666 3439 4514 
Q 3959 4363 4331 4000 
Q 4659 3684 4818 3271 
Q 4978 2859 4978 2338 
Q 4978 1809 4818 1395 
Q 4659 981 4331 666 
Q 3956 303 3431 151 
Q 2906 0 1856 0 
L 588 0 
L 588 4666 
z
" transform="scale(0.015625)"/>
        <path id="DejaVuSans-Bold-50" d="M 588 4666 
L 2584 4666 
Q 3475 4666 3951 4270 
Q 4428 3875 4428 3144 
Q 4428 2409 3951 2014 
Q 3475 1619 2584 1619 
L 1791 1619 
L 1791 0 
L 588 0 
L 588 4666 
z
M 1791 3794 
L 1791 2491 
L 2456 2491 
Q 2806 2491 2997 2661 
Q 3188 2831 3188 3144 
Q 3188 3456 2997 3625 
Q 2806 3794 2456 3794 
L 1791 3794 
z
" transform="scale(0.015625)"/>
       </defs>
       <use xlink:href="#DejaVuSans-Bold-49"/>
       <use xlink:href="#DejaVuSans-Bold-48" x="37.207031"/>
       <use xlink:href="#DejaVuSans-Bold-44" x="120.898438"/>
       <use xlink:href="#DejaVuSans-Bold-50" x="203.90625"/>
      </g>
     </g>
    </g>
    <g id="xtick_2">
     <g id="text_2">
      <!-- TCGA -->
      <g style="fill: #262626" transform="translate(160.915937 193.438125) scale(0.12 -0.12)">
       <defs>
        <path id="DejaVuSans-Bold-54" d="M 31 4666 
L 4331 4666 
L 4331 3756 
L 2784 3756 
L 2784 0 
L 1581 0 
L 1581 3756 
L 31 3756 
L 31 4666 
z
" transform="scale(0.015625)"/>
        <path id="DejaVuSans-Bold-43" d="M 4288 256 
Q 3956 84 3597 -3 
Q 3238 -91 2847 -91 
Q 1681 -91 1000 561 
Q 319 1213 319 2328 
Q 319 3447 1000 4098 
Q 1681 4750 2847 4750 
Q 3238 4750 3597 4662 
Q 3956 4575 4288 4403 
L 4288 3438 
Q 3953 3666 3628 3772 
Q 3303 3878 2944 3878 
Q 2300 3878 1931 3465 
Q 1563 3053 1563 2328 
Q 1563 1606 1931 1193 
Q 2300 781 2944 781 
Q 3303 781 3628 887 
Q 3953 994 4288 1222 
L 4288 256 
z
" transform="scale(0.015625)"/>
        <path id="DejaVuSans-Bold-47" d="M 4781 347 
Q 4331 128 3847 18 
Q 3363 -91 2847 -91 
Q 1681 -91 1000 561 
Q 319 1213 319 2328 
Q 319 3456 1012 4103 
Q 1706 4750 2913 4750 
Q 3378 4750 3804 4662 
Q 4231 4575 4609 4403 
L 4609 3438 
Q 4219 3659 3833 3768 
Q 3447 3878 3059 3878 
Q 2341 3878 1952 3476 
Q 1563 3075 1563 2328 
Q 1563 1588 1938 1184 
Q 2313 781 3003 781 
Q 3191 781 3352 804 
Q 3513 828 3641 878 
L 3641 1784 
L 2906 1784 
L 2906 2591 
L 4781 2591 
L 4781 347 
z
" transform="scale(0.015625)"/>
        <path id="DejaVuSans-Bold-41" d="M 3419 850 
L 1538 850 
L 1241 0 
L 31 0 
L 1759 4666 
L 3194 4666 
L 4922 0 
L 3713 0 
L 3419 850 
z
M 1838 1716 
L 3116 1716 
L 2478 3572 
L 1838 1716 
z
" transform="scale(0.015625)"/>
       </defs>
       <use xlink:href="#DejaVuSans-Bold-54"/>
       <use xlink:href="#DejaVuSans-Bold-43" x="68.212891"/>
       <use xlink:href="#DejaVuSans-Bold-47" x="141.601562"/>
       <use xlink:href="#DejaVuSans-Bold-41" x="223.681641"/>
      </g>
     </g>
    </g>
    <g id="xtick_3">
     <g id="text_3">
      <!-- IHDP-C -->
      <g style="fill: #262626" transform="translate(237.803333 193.438125) scale(0.12 -0.12)">
       <defs>
        <path id="DejaVuSans-Bold-2d" d="M 347 2297 
L 2309 2297 
L 2309 1388 
L 347 1388 
L 347 2297 
z
" transform="scale(0.015625)"/>
       </defs>
       <use xlink:href="#DejaVuSans-Bold-49"/>
       <use xlink:href="#DejaVuSans-Bold-48" x="37.207031"/>
       <use xlink:href="#DejaVuSans-Bold-44" x="120.898438"/>
       <use xlink:href="#DejaVuSans-Bold-50" x="203.90625"/>
       <use xlink:href="#DejaVuSans-Bold-2d" x="275.447266"/>
       <use xlink:href="#DejaVuSans-Bold-43" x="316.951172"/>
      </g>
     </g>
    </g>
    <g id="xtick_4">
     <g id="text_4">
      <!-- News -->
      <g style="fill: #262626" transform="translate(325.261979 193.438125) scale(0.12 -0.12)">
       <defs>
        <path id="DejaVuSans-Bold-4e" d="M 588 4666 
L 1931 4666 
L 3628 1466 
L 3628 4666 
L 4769 4666 
L 4769 0 
L 3425 0 
L 1728 3200 
L 1728 0 
L 588 0 
L 588 4666 
z
" transform="scale(0.015625)"/>
        <path id="DejaVuSans-Bold-65" d="M 4031 1759 
L 4031 1441 
L 1416 1441 
Q 1456 1047 1700 850 
Q 1944 653 2381 653 
Q 2734 653 3104 758 
Q 3475 863 3866 1075 
L 3866 213 
Q 3469 63 3072 -14 
Q 2675 -91 2278 -91 
Q 1328 -91 801 392 
Q 275 875 275 1747 
Q 275 2603 792 3093 
Q 1309 3584 2216 3584 
Q 3041 3584 3536 3087 
Q 4031 2591 4031 1759 
z
M 2881 2131 
Q 2881 2450 2695 2645 
Q 2509 2841 2209 2841 
Q 1884 2841 1681 2658 
Q 1478 2475 1428 2131 
L 2881 2131 
z
" transform="scale(0.015625)"/>
        <path id="DejaVuSans-Bold-77" d="M 225 3500 
L 1313 3500 
L 1900 1088 
L 2491 3500 
L 3425 3500 
L 4013 1113 
L 4603 3500 
L 5691 3500 
L 4769 0 
L 3547 0 
L 2956 2406 
L 2369 0 
L 1147 0 
L 225 3500 
z
" transform="scale(0.015625)"/>
        <path id="DejaVuSans-Bold-73" d="M 3272 3391 
L 3272 2541 
Q 2913 2691 2578 2766 
Q 2244 2841 1947 2841 
Q 1628 2841 1473 2761 
Q 1319 2681 1319 2516 
Q 1319 2381 1436 2309 
Q 1553 2238 1856 2203 
L 2053 2175 
Q 2913 2066 3209 1816 
Q 3506 1566 3506 1031 
Q 3506 472 3093 190 
Q 2681 -91 1863 -91 
Q 1516 -91 1145 -36 
Q 775 19 384 128 
L 384 978 
Q 719 816 1070 734 
Q 1422 653 1784 653 
Q 2113 653 2278 743 
Q 2444 834 2444 1013 
Q 2444 1163 2330 1236 
Q 2216 1309 1875 1350 
L 1678 1375 
Q 931 1469 631 1722 
Q 331 1975 331 2491 
Q 331 3047 712 3315 
Q 1094 3584 1881 3584 
Q 2191 3584 2531 3537 
Q 2872 3491 3272 3391 
z
" transform="scale(0.015625)"/>
       </defs>
       <use xlink:href="#DejaVuSans-Bold-4e"/>
       <use xlink:href="#DejaVuSans-Bold-65" x="83.691406"/>
       <use xlink:href="#DejaVuSans-Bold-77" x="151.513672"/>
       <use xlink:href="#DejaVuSans-Bold-73" x="243.896484"/>
      </g>
     </g>
    </g>
    <g id="xtick_5">
     <g id="text_5">
      <!-- EEEC -->
      <g style="fill: #262626" transform="translate(409.010937 193.438125) scale(0.12 -0.12)">
       <defs>
        <path id="DejaVuSans-Bold-45" d="M 588 4666 
L 3834 4666 
L 3834 3756 
L 1791 3756 
L 1791 2888 
L 3713 2888 
L 3713 1978 
L 1791 1978 
L 1791 909 
L 3903 909 
L 3903 0 
L 588 0 
L 588 4666 
z
" transform="scale(0.015625)"/>
       </defs>
       <use xlink:href="#DejaVuSans-Bold-45"/>
       <use xlink:href="#DejaVuSans-Bold-45" x="68.310547"/>
       <use xlink:href="#DejaVuSans-Bold-45" x="136.621094"/>
       <use xlink:href="#DejaVuSans-Bold-43" x="204.931641"/>
      </g>
     </g>
    </g>
    <g id="xtick_6">
     <g id="text_6">
      <!-- Uganda -->
      <g style="fill: #262626" transform="translate(482.123021 193.438125) scale(0.12 -0.12)">
       <defs>
        <path id="DejaVuSans-Bold-55" d="M 588 4666 
L 1791 4666 
L 1791 1869 
Q 1791 1291 1980 1042 
Q 2169 794 2597 794 
Q 3028 794 3217 1042 
Q 3406 1291 3406 1869 
L 3406 4666 
L 4609 4666 
L 4609 1869 
Q 4609 878 4112 393 
Q 3616 -91 2597 -91 
Q 1581 -91 1084 393 
Q 588 878 588 1869 
L 588 4666 
z
" transform="scale(0.015625)"/>
        <path id="DejaVuSans-Bold-67" d="M 2919 594 
Q 2688 288 2409 144 
Q 2131 0 1766 0 
Q 1125 0 706 504 
Q 288 1009 288 1791 
Q 288 2575 706 3076 
Q 1125 3578 1766 3578 
Q 2131 3578 2409 3434 
Q 2688 3291 2919 2981 
L 2919 3500 
L 4044 3500 
L 4044 353 
Q 4044 -491 3511 -936 
Q 2978 -1381 1966 -1381 
Q 1638 -1381 1331 -1331 
Q 1025 -1281 716 -1178 
L 716 -306 
Q 1009 -475 1290 -558 
Q 1572 -641 1856 -641 
Q 2406 -641 2662 -400 
Q 2919 -159 2919 353 
L 2919 594 
z
M 2181 2772 
Q 1834 2772 1640 2515 
Q 1447 2259 1447 1791 
Q 1447 1309 1634 1061 
Q 1822 813 2181 813 
Q 2531 813 2725 1069 
Q 2919 1325 2919 1791 
Q 2919 2259 2725 2515 
Q 2531 2772 2181 2772 
z
" transform="scale(0.015625)"/>
        <path id="DejaVuSans-Bold-61" d="M 2106 1575 
Q 1756 1575 1579 1456 
Q 1403 1338 1403 1106 
Q 1403 894 1545 773 
Q 1688 653 1941 653 
Q 2256 653 2472 879 
Q 2688 1106 2688 1447 
L 2688 1575 
L 2106 1575 
z
M 3816 1997 
L 3816 0 
L 2688 0 
L 2688 519 
Q 2463 200 2181 54 
Q 1900 -91 1497 -91 
Q 953 -91 614 226 
Q 275 544 275 1050 
Q 275 1666 698 1953 
Q 1122 2241 2028 2241 
L 2688 2241 
L 2688 2328 
Q 2688 2594 2478 2717 
Q 2269 2841 1825 2841 
Q 1466 2841 1156 2769 
Q 847 2697 581 2553 
L 581 3406 
Q 941 3494 1303 3539 
Q 1666 3584 2028 3584 
Q 2975 3584 3395 3211 
Q 3816 2838 3816 1997 
z
" transform="scale(0.015625)"/>
        <path id="DejaVuSans-Bold-6e" d="M 4056 2131 
L 4056 0 
L 2931 0 
L 2931 347 
L 2931 1631 
Q 2931 2084 2911 2256 
Q 2891 2428 2841 2509 
Q 2775 2619 2662 2680 
Q 2550 2741 2406 2741 
Q 2056 2741 1856 2470 
Q 1656 2200 1656 1722 
L 1656 0 
L 538 0 
L 538 3500 
L 1656 3500 
L 1656 2988 
Q 1909 3294 2193 3439 
Q 2478 3584 2822 3584 
Q 3428 3584 3742 3212 
Q 4056 2841 4056 2131 
z
" transform="scale(0.015625)"/>
        <path id="DejaVuSans-Bold-64" d="M 2919 2988 
L 2919 4863 
L 4044 4863 
L 4044 0 
L 2919 0 
L 2919 506 
Q 2688 197 2409 53 
Q 2131 -91 1766 -91 
Q 1119 -91 703 423 
Q 288 938 288 1747 
Q 288 2556 703 3070 
Q 1119 3584 1766 3584 
Q 2128 3584 2408 3439 
Q 2688 3294 2919 2988 
z
M 2181 722 
Q 2541 722 2730 984 
Q 2919 1247 2919 1747 
Q 2919 2247 2730 2509 
Q 2541 2772 2181 2772 
Q 1825 2772 1636 2509 
Q 1447 2247 1447 1747 
Q 1447 1247 1636 984 
Q 1825 722 2181 722 
z
" transform="scale(0.015625)"/>
       </defs>
       <use xlink:href="#DejaVuSans-Bold-55"/>
       <use xlink:href="#DejaVuSans-Bold-67" x="81.201172"/>
       <use xlink:href="#DejaVuSans-Bold-61" x="152.783203"/>
       <use xlink:href="#DejaVuSans-Bold-6e" x="220.263672"/>
       <use xlink:href="#DejaVuSans-Bold-64" x="291.455078"/>
       <use xlink:href="#DejaVuSans-Bold-61" x="363.037109"/>
      </g>
     </g>
    </g>
   </g>
   <g id="matplotlib.axis_2">
    <g id="ytick_1">
     <g id="text_7">
      <!-- 0.0 -->
      <g style="fill: #262626" transform="translate(24.85875 179.379063) scale(0.12 -0.12)">
       <defs>
        <path id="DejaVuSans-Bold-30" d="M 2944 2338 
Q 2944 3213 2780 3570 
Q 2616 3928 2228 3928 
Q 1841 3928 1675 3570 
Q 1509 3213 1509 2338 
Q 1509 1453 1675 1090 
Q 1841 728 2228 728 
Q 2613 728 2778 1090 
Q 2944 1453 2944 2338 
z
M 4147 2328 
Q 4147 1169 3647 539 
Q 3147 -91 2228 -91 
Q 1306 -91 806 539 
Q 306 1169 306 2328 
Q 306 3491 806 4120 
Q 1306 4750 2228 4750 
Q 3147 4750 3647 4120 
Q 4147 3491 4147 2328 
z
" transform="scale(0.015625)"/>
        <path id="DejaVuSans-Bold-2e" d="M 653 1209 
L 1778 1209 
L 1778 0 
L 653 0 
L 653 1209 
z
" transform="scale(0.015625)"/>
       </defs>
       <use xlink:href="#DejaVuSans-Bold-30"/>
       <use xlink:href="#DejaVuSans-Bold-2e" x="69.580078"/>
       <use xlink:href="#DejaVuSans-Bold-30" x="107.568359"/>
      </g>
     </g>
    </g>
    <g id="ytick_2">
     <g id="text_8">
      <!-- 0.2 -->
      <g style="fill: #262626" transform="translate(24.85875 147.451443) scale(0.12 -0.12)">
       <defs>
        <path id="DejaVuSans-Bold-32" d="M 1844 884 
L 3897 884 
L 3897 0 
L 506 0 
L 506 884 
L 2209 2388 
Q 2438 2594 2547 2791 
Q 2656 2988 2656 3200 
Q 2656 3528 2436 3728 
Q 2216 3928 1850 3928 
Q 1569 3928 1234 3808 
Q 900 3688 519 3450 
L 519 4475 
Q 925 4609 1322 4679 
Q 1719 4750 2100 4750 
Q 2938 4750 3402 4381 
Q 3866 4013 3866 3353 
Q 3866 2972 3669 2642 
Q 3472 2313 2841 1759 
L 1844 884 
z
" transform="scale(0.015625)"/>
       </defs>
       <use xlink:href="#DejaVuSans-Bold-30"/>
       <use xlink:href="#DejaVuSans-Bold-2e" x="69.580078"/>
       <use xlink:href="#DejaVuSans-Bold-32" x="107.568359"/>
      </g>
     </g>
    </g>
    <g id="ytick_3">
     <g id="text_9">
      <!-- 0.4 -->
      <g style="fill: #262626" transform="translate(24.85875 115.523824) scale(0.12 -0.12)">
       <defs>
        <path id="DejaVuSans-Bold-34" d="M 2356 3675 
L 1038 1722 
L 2356 1722 
L 2356 3675 
z
M 2156 4666 
L 3494 4666 
L 3494 1722 
L 4159 1722 
L 4159 850 
L 3494 850 
L 3494 0 
L 2356 0 
L 2356 850 
L 288 850 
L 288 1881 
L 2156 4666 
z
" transform="scale(0.015625)"/>
       </defs>
       <use xlink:href="#DejaVuSans-Bold-30"/>
       <use xlink:href="#DejaVuSans-Bold-2e" x="69.580078"/>
       <use xlink:href="#DejaVuSans-Bold-34" x="107.568359"/>
      </g>
     </g>
    </g>
    <g id="ytick_4">
     <g id="text_10">
      <!-- 0.6 -->
      <g style="fill: #262626" transform="translate(24.85875 83.596205) scale(0.12 -0.12)">
       <defs>
        <path id="DejaVuSans-Bold-36" d="M 2316 2303 
Q 2000 2303 1842 2098 
Q 1684 1894 1684 1484 
Q 1684 1075 1842 870 
Q 2000 666 2316 666 
Q 2634 666 2792 870 
Q 2950 1075 2950 1484 
Q 2950 1894 2792 2098 
Q 2634 2303 2316 2303 
z
M 3803 4544 
L 3803 3681 
Q 3506 3822 3243 3889 
Q 2981 3956 2731 3956 
Q 2194 3956 1894 3657 
Q 1594 3359 1544 2772 
Q 1750 2925 1990 3001 
Q 2231 3078 2516 3078 
Q 3231 3078 3670 2659 
Q 4109 2241 4109 1563 
Q 4109 813 3618 361 
Q 3128 -91 2303 -91 
Q 1394 -91 895 523 
Q 397 1138 397 2266 
Q 397 3422 980 4083 
Q 1563 4744 2578 4744 
Q 2900 4744 3203 4694 
Q 3506 4644 3803 4544 
z
" transform="scale(0.015625)"/>
       </defs>
       <use xlink:href="#DejaVuSans-Bold-30"/>
       <use xlink:href="#DejaVuSans-Bold-2e" x="69.580078"/>
       <use xlink:href="#DejaVuSans-Bold-36" x="107.568359"/>
      </g>
     </g>
    </g>
    <g id="ytick_5">
     <g id="text_11">
      <!-- 0.8 -->
      <g style="fill: #262626" transform="translate(24.85875 51.668586) scale(0.12 -0.12)">
       <defs>
        <path id="DejaVuSans-Bold-38" d="M 2228 2088 
Q 1891 2088 1709 1903 
Q 1528 1719 1528 1375 
Q 1528 1031 1709 848 
Q 1891 666 2228 666 
Q 2563 666 2741 848 
Q 2919 1031 2919 1375 
Q 2919 1722 2741 1905 
Q 2563 2088 2228 2088 
z
M 1350 2484 
Q 925 2613 709 2878 
Q 494 3144 494 3541 
Q 494 4131 934 4440 
Q 1375 4750 2228 4750 
Q 3075 4750 3515 4442 
Q 3956 4134 3956 3541 
Q 3956 3144 3739 2878 
Q 3522 2613 3097 2484 
Q 3572 2353 3814 2058 
Q 4056 1763 4056 1313 
Q 4056 619 3595 264 
Q 3134 -91 2228 -91 
Q 1319 -91 855 264 
Q 391 619 391 1313 
Q 391 1763 633 2058 
Q 875 2353 1350 2484 
z
M 1631 3419 
Q 1631 3141 1786 2991 
Q 1941 2841 2228 2841 
Q 2509 2841 2662 2991 
Q 2816 3141 2816 3419 
Q 2816 3697 2662 3845 
Q 2509 3994 2228 3994 
Q 1941 3994 1786 3844 
Q 1631 3694 1631 3419 
z
" transform="scale(0.015625)"/>
       </defs>
       <use xlink:href="#DejaVuSans-Bold-30"/>
       <use xlink:href="#DejaVuSans-Bold-2e" x="69.580078"/>
       <use xlink:href="#DejaVuSans-Bold-38" x="107.568359"/>
      </g>
     </g>
    </g>
    <g id="ytick_6">
     <g id="text_12">
      <!-- 1.0 -->
      <g style="fill: #262626" transform="translate(24.85875 19.740967) scale(0.12 -0.12)">
       <defs>
        <path id="DejaVuSans-Bold-31" d="M 750 831 
L 1813 831 
L 1813 3847 
L 722 3622 
L 722 4441 
L 1806 4666 
L 2950 4666 
L 2950 831 
L 4013 831 
L 4013 0 
L 750 0 
L 750 831 
z
" transform="scale(0.015625)"/>
       </defs>
       <use xlink:href="#DejaVuSans-Bold-31"/>
       <use xlink:href="#DejaVuSans-Bold-2e" x="69.580078"/>
       <use xlink:href="#DejaVuSans-Bold-30" x="107.568359"/>
      </g>
     </g>
    </g>
    <g id="text_13">
     <!-- Consistency -->
     <g style="fill: #262626" transform="translate(17.837813 138.46125) rotate(-90) scale(0.14 -0.14)">
      <defs>
       <path id="DejaVuSans-Bold-6f" d="M 2203 2784 
Q 1831 2784 1636 2517 
Q 1441 2250 1441 1747 
Q 1441 1244 1636 976 
Q 1831 709 2203 709 
Q 2569 709 2762 976 
Q 2956 1244 2956 1747 
Q 2956 2250 2762 2517 
Q 2569 2784 2203 2784 
z
M 2203 3584 
Q 3106 3584 3614 3096 
Q 4122 2609 4122 1747 
Q 4122 884 3614 396 
Q 3106 -91 2203 -91 
Q 1297 -91 786 396 
Q 275 884 275 1747 
Q 275 2609 786 3096 
Q 1297 3584 2203 3584 
z
" transform="scale(0.015625)"/>
       <path id="DejaVuSans-Bold-69" d="M 538 3500 
L 1656 3500 
L 1656 0 
L 538 0 
L 538 3500 
z
M 538 4863 
L 1656 4863 
L 1656 3950 
L 538 3950 
L 538 4863 
z
" transform="scale(0.015625)"/>
       <path id="DejaVuSans-Bold-74" d="M 1759 4494 
L 1759 3500 
L 2913 3500 
L 2913 2700 
L 1759 2700 
L 1759 1216 
Q 1759 972 1856 886 
Q 1953 800 2241 800 
L 2816 800 
L 2816 0 
L 1856 0 
Q 1194 0 917 276 
Q 641 553 641 1216 
L 641 2700 
L 84 2700 
L 84 3500 
L 641 3500 
L 641 4494 
L 1759 4494 
z
" transform="scale(0.015625)"/>
       <path id="DejaVuSans-Bold-63" d="M 3366 3391 
L 3366 2478 
Q 3138 2634 2908 2709 
Q 2678 2784 2431 2784 
Q 1963 2784 1702 2511 
Q 1441 2238 1441 1747 
Q 1441 1256 1702 982 
Q 1963 709 2431 709 
Q 2694 709 2930 787 
Q 3166 866 3366 1019 
L 3366 103 
Q 3103 6 2833 -42 
Q 2563 -91 2291 -91 
Q 1344 -91 809 395 
Q 275 881 275 1747 
Q 275 2613 809 3098 
Q 1344 3584 2291 3584 
Q 2566 3584 2833 3536 
Q 3100 3488 3366 3391 
z
" transform="scale(0.015625)"/>
       <path id="DejaVuSans-Bold-79" d="M 78 3500 
L 1197 3500 
L 2138 1125 
L 2938 3500 
L 4056 3500 
L 2584 -331 
Q 2363 -916 2067 -1148 
Q 1772 -1381 1288 -1381 
L 641 -1381 
L 641 -647 
L 991 -647 
Q 1275 -647 1404 -556 
Q 1534 -466 1606 -231 
L 1638 -134 
L 78 3500 
z
" transform="scale(0.015625)"/>
      </defs>
      <use xlink:href="#DejaVuSans-Bold-43"/>
      <use xlink:href="#DejaVuSans-Bold-6f" x="73.388672"/>
      <use xlink:href="#DejaVuSans-Bold-6e" x="142.089844"/>
      <use xlink:href="#DejaVuSans-Bold-73" x="213.28125"/>
      <use xlink:href="#DejaVuSans-Bold-69" x="272.802734"/>
      <use xlink:href="#DejaVuSans-Bold-73" x="307.080078"/>
      <use xlink:href="#DejaVuSans-Bold-74" x="366.601562"/>
      <use xlink:href="#DejaVuSans-Bold-65" x="414.404297"/>
      <use xlink:href="#DejaVuSans-Bold-6e" x="482.226562"/>
      <use xlink:href="#DejaVuSans-Bold-63" x="553.417969"/>
      <use xlink:href="#DejaVuSans-Bold-79" x="612.695312"/>
     </g>
    </g>
   </g>
   <g id="patch_3">
    <path d="M 63.839958 174.82 
L 72.064292 174.82 
L 72.064292 136.027943 
L 63.839958 136.027943 
z
" clip-path="url(#p92cbc66112)" style="fill: #597dbf; stroke: #ffffff; stroke-linejoin: miter"/>
   </g>
   <g id="patch_4">
    <path d="M 146.083292 174.82 
L 154.307625 174.82 
L 154.307625 85.10339 
L 146.083292 85.10339 
z
" clip-path="url(#p92cbc66112)" style="fill: #597dbf; stroke: #ffffff; stroke-linejoin: miter"/>
   </g>
   <g id="patch_5">
    <path d="M 228.326625 174.82 
L 236.550958 174.82 
L 236.550958 154.545962 
L 228.326625 154.545962 
z
" clip-path="url(#p92cbc66112)" style="fill: #597dbf; stroke: #ffffff; stroke-linejoin: miter"/>
   </g>
   <g id="patch_6">
    <path d="M 310.569958 174.82 
L 318.794292 174.82 
L 318.794292 44.555314 
L 310.569958 44.555314 
z
" clip-path="url(#p92cbc66112)" style="fill: #597dbf; stroke: #ffffff; stroke-linejoin: miter"/>
   </g>
   <g id="patch_7">
    <path d="M 392.813292 174.82 
L 401.037625 174.82 
L 401.037625 171.627238 
L 392.813292 171.627238 
z
" clip-path="url(#p92cbc66112)" style="fill: #597dbf; stroke: #ffffff; stroke-linejoin: miter"/>
   </g>
   <g id="patch_8">
    <path d="M 475.056625 174.82 
L 483.280958 174.82 
L 483.280958 143.211657 
L 475.056625 143.211657 
z
" clip-path="url(#p92cbc66112)" style="fill: #597dbf; stroke: #ffffff; stroke-linejoin: miter"/>
   </g>
   <g id="patch_9">
    <path d="M 72.064292 174.82 
L 80.288625 174.82 
L 80.288625 171.627238 
L 72.064292 171.627238 
z
" clip-path="url(#p92cbc66112)" style="fill: #d98b5f; stroke: #ffffff; stroke-linejoin: miter"/>
   </g>
   <g id="patch_10">
    <path d="M 154.307625 174.82 
L 162.531958 174.82 
L 162.531958 171.627238 
L 154.307625 171.627238 
z
" clip-path="url(#p92cbc66112)" style="fill: #d98b5f; stroke: #ffffff; stroke-linejoin: miter"/>
   </g>
   <g id="patch_11">
    <path d="M 236.550958 174.82 
L 244.775292 174.82 
L 244.775292 171.627238 
L 236.550958 171.627238 
z
" clip-path="url(#p92cbc66112)" style="fill: #d98b5f; stroke: #ffffff; stroke-linejoin: miter"/>
   </g>
   <g id="patch_12">
    <path d="M 318.794292 174.82 
L 327.018625 174.82 
L 327.018625 171.627238 
L 318.794292 171.627238 
z
" clip-path="url(#p92cbc66112)" style="fill: #d98b5f; stroke: #ffffff; stroke-linejoin: miter"/>
   </g>
   <g id="patch_13">
    <path d="M 401.037625 174.82 
L 409.261958 174.82 
L 409.261958 171.627238 
L 401.037625 171.627238 
z
" clip-path="url(#p92cbc66112)" style="fill: #d98b5f; stroke: #ffffff; stroke-linejoin: miter"/>
   </g>
   <g id="patch_14">
    <path d="M 483.280958 174.82 
L 491.505292 174.82 
L 491.505292 171.627238 
L 483.280958 171.627238 
z
" clip-path="url(#p92cbc66112)" style="fill: #d98b5f; stroke: #ffffff; stroke-linejoin: miter"/>
   </g>
   <g id="patch_15">
    <path d="M 80.288625 174.82 
L 88.512958 174.82 
L 88.512958 161.4104 
L 80.288625 161.4104 
z
" clip-path="url(#p92cbc66112)" style="fill: #75bf71; stroke: #ffffff; stroke-linejoin: miter"/>
   </g>
   <g id="patch_16">
    <path d="M 162.531958 174.82 
L 170.756292 174.82 
L 170.756292 171.627238 
L 162.531958 171.627238 
z
" clip-path="url(#p92cbc66112)" style="fill: #75bf71; stroke: #ffffff; stroke-linejoin: miter"/>
   </g>
   <g id="patch_17">
    <path d="M 244.775292 174.82 
L 252.999625 174.82 
L 252.999625 128.046038 
L 244.775292 128.046038 
z
" clip-path="url(#p92cbc66112)" style="fill: #75bf71; stroke: #ffffff; stroke-linejoin: miter"/>
   </g>
   <g id="patch_18">
    <path d="M 327.018625 174.82 
L 335.242958 174.82 
L 335.242958 171.627238 
L 327.018625 171.627238 
z
" clip-path="url(#p92cbc66112)" style="fill: #75bf71; stroke: #ffffff; stroke-linejoin: miter"/>
   </g>
   <g id="patch_19">
    <path d="M 409.261958 174.82 
L 417.486292 174.82 
L 417.486292 171.627238 
L 409.261958 171.627238 
z
" clip-path="url(#p92cbc66112)" style="fill: #75bf71; stroke: #ffffff; stroke-linejoin: miter"/>
   </g>
   <g id="patch_20">
    <path d="M 491.505292 174.82 
L 499.729625 174.82 
L 499.729625 164.283886 
L 491.505292 164.283886 
z
" clip-path="url(#p92cbc66112)" style="fill: #75bf71; stroke: #ffffff; stroke-linejoin: miter"/>
   </g>
   <g id="patch_21">
    <path d="M 88.512958 174.82 
L 96.737292 174.82 
L 96.737292 145.765867 
L 88.512958 145.765867 
z
" clip-path="url(#p92cbc66112)" style="fill: #c76e6e; stroke: #ffffff; stroke-linejoin: miter"/>
   </g>
   <g id="patch_22">
    <path d="M 170.756292 174.82 
L 178.980625 174.82 
L 178.980625 171.627238 
L 170.756292 171.627238 
z
" clip-path="url(#p92cbc66112)" style="fill: #c76e6e; stroke: #ffffff; stroke-linejoin: miter"/>
   </g>
   <g id="patch_23">
    <path d="M 252.999625 174.82 
L 261.223958 174.82 
L 261.223958 171.627238 
L 252.999625 171.627238 
z
" clip-path="url(#p92cbc66112)" style="fill: #c76e6e; stroke: #ffffff; stroke-linejoin: miter"/>
   </g>
   <g id="patch_24">
    <path d="M 335.242958 174.82 
L 343.467292 174.82 
L 343.467292 171.627238 
L 335.242958 171.627238 
z
" clip-path="url(#p92cbc66112)" style="fill: #c76e6e; stroke: #ffffff; stroke-linejoin: miter"/>
   </g>
   <g id="patch_25">
    <path d="M 417.486292 174.82 
L 425.710625 174.82 
L 425.710625 171.627238 
L 417.486292 171.627238 
z
" clip-path="url(#p92cbc66112)" style="fill: #c76e6e; stroke: #ffffff; stroke-linejoin: miter"/>
   </g>
   <g id="patch_26">
    <path d="M 499.729625 174.82 
L 507.953958 174.82 
L 507.953958 171.627238 
L 499.729625 171.627238 
z
" clip-path="url(#p92cbc66112)" style="fill: #c76e6e; stroke: #ffffff; stroke-linejoin: miter"/>
   </g>
   <g id="patch_27">
    <path d="M 96.737292 174.82 
L 104.961625 174.82 
L 104.961625 171.627238 
L 96.737292 171.627238 
z
" clip-path="url(#p92cbc66112)" style="fill: #9475ab; stroke: #ffffff; stroke-linejoin: miter"/>
   </g>
   <g id="patch_28">
    <path d="M 178.980625 174.82 
L 187.204958 174.82 
L 187.204958 171.627238 
L 178.980625 171.627238 
z
" clip-path="url(#p92cbc66112)" style="fill: #9475ab; stroke: #ffffff; stroke-linejoin: miter"/>
   </g>
   <g id="patch_29">
    <path d="M 261.223958 174.82 
L 269.448292 174.82 
L 269.448292 167.476648 
L 261.223958 167.476648 
z
" clip-path="url(#p92cbc66112)" style="fill: #9475ab; stroke: #ffffff; stroke-linejoin: miter"/>
   </g>
   <g id="patch_30">
    <path d="M 343.467292 174.82 
L 351.691625 174.82 
L 351.691625 169.871219 
L 343.467292 169.871219 
z
" clip-path="url(#p92cbc66112)" style="fill: #9475ab; stroke: #ffffff; stroke-linejoin: miter"/>
   </g>
   <g id="patch_31">
    <path d="M 425.710625 174.82 
L 433.934958 174.82 
L 433.934958 170.509771 
L 425.710625 170.509771 
z
" clip-path="url(#p92cbc66112)" style="fill: #9475ab; stroke: #ffffff; stroke-linejoin: miter"/>
   </g>
   <g id="patch_32">
    <path d="M 507.953958 174.82 
L 516.178292 174.82 
L 516.178292 109.049105 
L 507.953958 109.049105 
z
" clip-path="url(#p92cbc66112)" style="fill: #9475ab; stroke: #ffffff; stroke-linejoin: miter"/>
   </g>
   <g id="patch_33">
    <path d="M 104.961625 174.82 
L 113.185958 174.82 
L 113.185958 120.064133 
L 104.961625 120.064133 
z
" clip-path="url(#p92cbc66112)" style="fill: url(#h070d62c7f1); stroke: #ffffff; stroke-linejoin: miter"/>
   </g>
   <g id="patch_34">
    <path d="M 187.204958 174.82 
L 195.429292 174.82 
L 195.429292 155.663429 
L 187.204958 155.663429 
z
" clip-path="url(#p92cbc66112)" style="fill: url(#h070d62c7f1); stroke: #ffffff; stroke-linejoin: miter"/>
   </g>
   <g id="patch_35">
    <path d="M 269.448292 174.82 
L 277.672625 174.82 
L 277.672625 167.636286 
L 269.448292 167.636286 
z
" clip-path="url(#p92cbc66112)" style="fill: url(#h070d62c7f1); stroke: #ffffff; stroke-linejoin: miter"/>
   </g>
   <g id="patch_36">
    <path d="M 351.691625 174.82 
L 359.915958 174.82 
L 359.915958 96.118419 
L 351.691625 96.118419 
z
" clip-path="url(#p92cbc66112)" style="fill: url(#h070d62c7f1); stroke: #ffffff; stroke-linejoin: miter"/>
   </g>
   <g id="patch_37">
    <path d="M 433.934958 174.82 
L 442.159292 174.82 
L 442.159292 171.627238 
L 433.934958 171.627238 
z
" clip-path="url(#p92cbc66112)" style="fill: url(#h070d62c7f1); stroke: #ffffff; stroke-linejoin: miter"/>
   </g>
   <g id="patch_38">
    <path d="M 516.178292 174.82 
L 524.402625 174.82 
L 524.402625 161.729676 
L 516.178292 161.729676 
z
" clip-path="url(#p92cbc66112)" style="fill: url(#h070d62c7f1); stroke: #ffffff; stroke-linejoin: miter"/>
   </g>
   <g id="patch_39">
    <path d="M 113.185958 174.82 
L 121.410292 174.82 
L 121.410292 153.428495 
L 113.185958 153.428495 
z
" clip-path="url(#p92cbc66112)" style="fill: url(#hf62fe01990); stroke: #ffffff; stroke-linejoin: miter"/>
   </g>
   <g id="patch_40">
    <path d="M 195.429292 174.82 
L 203.653625 174.82 
L 203.653625 137.9436 
L 195.429292 137.9436 
z
" clip-path="url(#p92cbc66112)" style="fill: url(#hf62fe01990); stroke: #ffffff; stroke-linejoin: miter"/>
   </g>
   <g id="patch_41">
    <path d="M 277.672625 174.82 
L 285.896958 174.82 
L 285.896958 166.359181 
L 277.672625 166.359181 
z
" clip-path="url(#p92cbc66112)" style="fill: url(#hf62fe01990); stroke: #ffffff; stroke-linejoin: miter"/>
   </g>
   <g id="patch_42">
    <path d="M 359.915958 174.82 
L 368.140292 174.82 
L 368.140292 171.627238 
L 359.915958 171.627238 
z
" clip-path="url(#p92cbc66112)" style="fill: url(#hf62fe01990); stroke: #ffffff; stroke-linejoin: miter"/>
   </g>
   <g id="patch_43">
    <path d="M 442.159292 174.82 
L 450.383625 174.82 
L 450.383625 171.627238 
L 442.159292 171.627238 
z
" clip-path="url(#p92cbc66112)" style="fill: url(#hf62fe01990); stroke: #ffffff; stroke-linejoin: miter"/>
   </g>
   <g id="patch_44">
    <path d="M 524.402625 174.82 
L 532.626958 174.82 
L 532.626958 158.536914 
L 524.402625 158.536914 
z
" clip-path="url(#p92cbc66112)" style="fill: url(#hf62fe01990); stroke: #ffffff; stroke-linejoin: miter"/>
   </g>
   <g id="patch_45">
    <path d="M 121.410292 174.82 
L 129.634625 174.82 
L 129.634625 15.181905 
L 121.410292 15.181905 
z
" clip-path="url(#p92cbc66112)" style="fill: url(#h2c9c4d1357); stroke: #ffffff; stroke-linejoin: miter"/>
   </g>
   <g id="patch_46">
    <path d="M 203.653625 174.82 
L 211.877958 174.82 
L 211.877958 15.181905 
L 203.653625 15.181905 
z
" clip-path="url(#p92cbc66112)" style="fill: url(#h2c9c4d1357); stroke: #ffffff; stroke-linejoin: miter"/>
   </g>
   <g id="patch_47">
    <path d="M 285.896958 174.82 
L 294.121292 174.82 
L 294.121292 15.181905 
L 285.896958 15.181905 
z
" clip-path="url(#p92cbc66112)" style="fill: url(#h2c9c4d1357); stroke: #ffffff; stroke-linejoin: miter"/>
   </g>
   <g id="patch_48">
    <path d="M 368.140292 174.82 
L 376.364625 174.82 
L 376.364625 15.181905 
L 368.140292 15.181905 
z
" clip-path="url(#p92cbc66112)" style="fill: url(#h2c9c4d1357); stroke: #ffffff; stroke-linejoin: miter"/>
   </g>
   <g id="patch_49">
    <path d="M 450.383625 174.82 
L 458.607958 174.82 
L 458.607958 15.181905 
L 450.383625 15.181905 
z
" clip-path="url(#p92cbc66112)" style="fill: url(#h2c9c4d1357); stroke: #ffffff; stroke-linejoin: miter"/>
   </g>
   <g id="patch_50">
    <path d="M 532.626958 174.82 
L 540.851292 174.82 
L 540.851292 15.181905 
L 532.626958 15.181905 
z
" clip-path="url(#p92cbc66112)" style="fill: url(#h2c9c4d1357); stroke: #ffffff; stroke-linejoin: miter"/>
   </g>
   <g id="patch_51">
    <path d="M 96.737292 174.82 
L 96.737292 174.82 
L 96.737292 174.82 
L 96.737292 174.82 
z
" clip-path="url(#p92cbc66112)" style="fill: #597dbf; stroke: #ffffff; stroke-linejoin: miter"/>
   </g>
   <g id="patch_52">
    <path d="M 96.737292 174.82 
L 96.737292 174.82 
L 96.737292 174.82 
L 96.737292 174.82 
z
" clip-path="url(#p92cbc66112)" style="fill: #d98b5f; stroke: #ffffff; stroke-linejoin: miter"/>
   </g>
   <g id="patch_53">
    <path d="M 96.737292 174.82 
L 96.737292 174.82 
L 96.737292 174.82 
L 96.737292 174.82 
z
" clip-path="url(#p92cbc66112)" style="fill: #75bf71; stroke: #ffffff; stroke-linejoin: miter"/>
   </g>
   <g id="patch_54">
    <path d="M 96.737292 174.82 
L 96.737292 174.82 
L 96.737292 174.82 
L 96.737292 174.82 
z
" clip-path="url(#p92cbc66112)" style="fill: #c76e6e; stroke: #ffffff; stroke-linejoin: miter"/>
   </g>
   <g id="patch_55">
    <path d="M 96.737292 174.82 
L 96.737292 174.82 
L 96.737292 174.82 
L 96.737292 174.82 
z
" clip-path="url(#p92cbc66112)" style="fill: #9475ab; stroke: #ffffff; stroke-linejoin: miter"/>
   </g>
   <g id="patch_56">
    <path d="M 96.737292 174.82 
L 96.737292 174.82 
L 96.737292 174.82 
L 96.737292 174.82 
z
" clip-path="url(#p92cbc66112)" style="fill: #826246; stroke: #ffffff; stroke-linejoin: miter"/>
   </g>
   <g id="patch_57">
    <path d="M 96.737292 174.82 
L 96.737292 174.82 
L 96.737292 174.82 
L 96.737292 174.82 
z
" clip-path="url(#p92cbc66112)" style="fill: #d08abb; stroke: #ffffff; stroke-linejoin: miter"/>
   </g>
   <g id="patch_58">
    <path d="M 96.737292 174.82 
L 96.737292 174.82 
L 96.737292 174.82 
L 96.737292 174.82 
z
" clip-path="url(#p92cbc66112)" style="fill: #797979; stroke: #ffffff; stroke-linejoin: miter"/>
   </g>
   <g id="line2d_1">
    <path clip-path="url(#p92cbc66112)" style="fill: none; stroke: #424242; stroke-width: 2.25; stroke-linecap: round"/>
   </g>
   <g id="line2d_2">
    <path clip-path="url(#p92cbc66112)" style="fill: none; stroke: #424242; stroke-width: 2.25; stroke-linecap: round"/>
   </g>
   <g id="line2d_3">
    <path clip-path="url(#p92cbc66112)" style="fill: none; stroke: #424242; stroke-width: 2.25; stroke-linecap: round"/>
   </g>
   <g id="line2d_4">
    <path clip-path="url(#p92cbc66112)" style="fill: none; stroke: #424242; stroke-width: 2.25; stroke-linecap: round"/>
   </g>
   <g id="line2d_5">
    <path clip-path="url(#p92cbc66112)" style="fill: none; stroke: #424242; stroke-width: 2.25; stroke-linecap: round"/>
   </g>
   <g id="line2d_6">
    <path clip-path="url(#p92cbc66112)" style="fill: none; stroke: #424242; stroke-width: 2.25; stroke-linecap: round"/>
   </g>
   <g id="line2d_7">
    <path clip-path="url(#p92cbc66112)" style="fill: none; stroke: #424242; stroke-width: 2.25; stroke-linecap: round"/>
   </g>
   <g id="line2d_8">
    <path clip-path="url(#p92cbc66112)" style="fill: none; stroke: #424242; stroke-width: 2.25; stroke-linecap: round"/>
   </g>
   <g id="line2d_9">
    <path clip-path="url(#p92cbc66112)" style="fill: none; stroke: #424242; stroke-width: 2.25; stroke-linecap: round"/>
   </g>
   <g id="line2d_10">
    <path clip-path="url(#p92cbc66112)" style="fill: none; stroke: #424242; stroke-width: 2.25; stroke-linecap: round"/>
   </g>
   <g id="line2d_11">
    <path clip-path="url(#p92cbc66112)" style="fill: none; stroke: #424242; stroke-width: 2.25; stroke-linecap: round"/>
   </g>
   <g id="line2d_12">
    <path clip-path="url(#p92cbc66112)" style="fill: none; stroke: #424242; stroke-width: 2.25; stroke-linecap: round"/>
   </g>
   <g id="line2d_13">
    <path clip-path="url(#p92cbc66112)" style="fill: none; stroke: #424242; stroke-width: 2.25; stroke-linecap: round"/>
   </g>
   <g id="line2d_14">
    <path clip-path="url(#p92cbc66112)" style="fill: none; stroke: #424242; stroke-width: 2.25; stroke-linecap: round"/>
   </g>
   <g id="line2d_15">
    <path clip-path="url(#p92cbc66112)" style="fill: none; stroke: #424242; stroke-width: 2.25; stroke-linecap: round"/>
   </g>
   <g id="line2d_16">
    <path clip-path="url(#p92cbc66112)" style="fill: none; stroke: #424242; stroke-width: 2.25; stroke-linecap: round"/>
   </g>
   <g id="line2d_17">
    <path clip-path="url(#p92cbc66112)" style="fill: none; stroke: #424242; stroke-width: 2.25; stroke-linecap: round"/>
   </g>
   <g id="line2d_18">
    <path clip-path="url(#p92cbc66112)" style="fill: none; stroke: #424242; stroke-width: 2.25; stroke-linecap: round"/>
   </g>
   <g id="line2d_19">
    <path clip-path="url(#p92cbc66112)" style="fill: none; stroke: #424242; stroke-width: 2.25; stroke-linecap: round"/>
   </g>
   <g id="line2d_20">
    <path clip-path="url(#p92cbc66112)" style="fill: none; stroke: #424242; stroke-width: 2.25; stroke-linecap: round"/>
   </g>
   <g id="line2d_21">
    <path clip-path="url(#p92cbc66112)" style="fill: none; stroke: #424242; stroke-width: 2.25; stroke-linecap: round"/>
   </g>
   <g id="line2d_22">
    <path clip-path="url(#p92cbc66112)" style="fill: none; stroke: #424242; stroke-width: 2.25; stroke-linecap: round"/>
   </g>
   <g id="line2d_23">
    <path clip-path="url(#p92cbc66112)" style="fill: none; stroke: #424242; stroke-width: 2.25; stroke-linecap: round"/>
   </g>
   <g id="line2d_24">
    <path clip-path="url(#p92cbc66112)" style="fill: none; stroke: #424242; stroke-width: 2.25; stroke-linecap: round"/>
   </g>
   <g id="line2d_25">
    <path clip-path="url(#p92cbc66112)" style="fill: none; stroke: #424242; stroke-width: 2.25; stroke-linecap: round"/>
   </g>
   <g id="line2d_26">
    <path clip-path="url(#p92cbc66112)" style="fill: none; stroke: #424242; stroke-width: 2.25; stroke-linecap: round"/>
   </g>
   <g id="line2d_27">
    <path clip-path="url(#p92cbc66112)" style="fill: none; stroke: #424242; stroke-width: 2.25; stroke-linecap: round"/>
   </g>
   <g id="line2d_28">
    <path clip-path="url(#p92cbc66112)" style="fill: none; stroke: #424242; stroke-width: 2.25; stroke-linecap: round"/>
   </g>
   <g id="line2d_29">
    <path clip-path="url(#p92cbc66112)" style="fill: none; stroke: #424242; stroke-width: 2.25; stroke-linecap: round"/>
   </g>
   <g id="line2d_30">
    <path clip-path="url(#p92cbc66112)" style="fill: none; stroke: #424242; stroke-width: 2.25; stroke-linecap: round"/>
   </g>
   <g id="line2d_31">
    <path clip-path="url(#p92cbc66112)" style="fill: none; stroke: #424242; stroke-width: 2.25; stroke-linecap: round"/>
   </g>
   <g id="line2d_32">
    <path clip-path="url(#p92cbc66112)" style="fill: none; stroke: #424242; stroke-width: 2.25; stroke-linecap: round"/>
   </g>
   <g id="line2d_33">
    <path clip-path="url(#p92cbc66112)" style="fill: none; stroke: #424242; stroke-width: 2.25; stroke-linecap: round"/>
   </g>
   <g id="line2d_34">
    <path clip-path="url(#p92cbc66112)" style="fill: none; stroke: #424242; stroke-width: 2.25; stroke-linecap: round"/>
   </g>
   <g id="line2d_35">
    <path clip-path="url(#p92cbc66112)" style="fill: none; stroke: #424242; stroke-width: 2.25; stroke-linecap: round"/>
   </g>
   <g id="line2d_36">
    <path clip-path="url(#p92cbc66112)" style="fill: none; stroke: #424242; stroke-width: 2.25; stroke-linecap: round"/>
   </g>
   <g id="line2d_37">
    <path clip-path="url(#p92cbc66112)" style="fill: none; stroke: #424242; stroke-width: 2.25; stroke-linecap: round"/>
   </g>
   <g id="line2d_38">
    <path clip-path="url(#p92cbc66112)" style="fill: none; stroke: #424242; stroke-width: 2.25; stroke-linecap: round"/>
   </g>
   <g id="line2d_39">
    <path clip-path="url(#p92cbc66112)" style="fill: none; stroke: #424242; stroke-width: 2.25; stroke-linecap: round"/>
   </g>
   <g id="line2d_40">
    <path clip-path="url(#p92cbc66112)" style="fill: none; stroke: #424242; stroke-width: 2.25; stroke-linecap: round"/>
   </g>
   <g id="line2d_41">
    <path clip-path="url(#p92cbc66112)" style="fill: none; stroke: #424242; stroke-width: 2.25; stroke-linecap: round"/>
   </g>
   <g id="line2d_42">
    <path clip-path="url(#p92cbc66112)" style="fill: none; stroke: #424242; stroke-width: 2.25; stroke-linecap: round"/>
   </g>
   <g id="line2d_43">
    <path clip-path="url(#p92cbc66112)" style="fill: none; stroke: #424242; stroke-width: 2.25; stroke-linecap: round"/>
   </g>
   <g id="line2d_44">
    <path clip-path="url(#p92cbc66112)" style="fill: none; stroke: #424242; stroke-width: 2.25; stroke-linecap: round"/>
   </g>
   <g id="line2d_45">
    <path clip-path="url(#p92cbc66112)" style="fill: none; stroke: #424242; stroke-width: 2.25; stroke-linecap: round"/>
   </g>
   <g id="line2d_46">
    <path clip-path="url(#p92cbc66112)" style="fill: none; stroke: #424242; stroke-width: 2.25; stroke-linecap: round"/>
   </g>
   <g id="line2d_47">
    <path clip-path="url(#p92cbc66112)" style="fill: none; stroke: #424242; stroke-width: 2.25; stroke-linecap: round"/>
   </g>
   <g id="line2d_48">
    <path clip-path="url(#p92cbc66112)" style="fill: none; stroke: #424242; stroke-width: 2.25; stroke-linecap: round"/>
   </g>
   <g id="patch_59">
    <path d="M 55.615625 174.82 
L 55.615625 7.2 
" style="fill: none; stroke: #262626; stroke-width: 1.25; stroke-linejoin: miter; stroke-linecap: square"/>
   </g>
   <g id="patch_60">
    <path d="M 55.615625 174.82 
L 549.075625 174.82 
" style="fill: none; stroke: #262626; stroke-width: 1.25; stroke-linejoin: miter; stroke-linecap: square"/>
   </g>
   <g id="legend_1">
    <g id="patch_61">
     <path d="M 556.775625 145.253438 
L 700.01625 145.253438 
Q 702.21625 145.253438 702.21625 143.053438 
L 702.21625 14.9 
Q 702.21625 12.7 700.01625 12.7 
L 556.775625 12.7 
Q 554.575625 12.7 554.575625 14.9 
L 554.575625 143.053438 
Q 554.575625 145.253438 556.775625 145.253438 
z
" style="fill: #ffffff; opacity: 0.8; stroke: #cccccc; stroke-linejoin: miter"/>
    </g>
    <g id="patch_62">
     <path d="M 558.975625 25.458281 
L 580.975625 25.458281 
L 580.975625 17.758281 
L 558.975625 17.758281 
z
" style="fill: #597dbf; stroke: #ffffff; stroke-linejoin: miter"/>
    </g>
    <g id="text_14">
     <!-- Model distillation -->
     <g style="fill: #262626" transform="translate(589.775625 25.458281) scale(0.11 -0.11)">
      <defs>
       <path id="DejaVuSans-Bold-4d" d="M 588 4666 
L 2119 4666 
L 3181 2169 
L 4250 4666 
L 5778 4666 
L 5778 0 
L 4641 0 
L 4641 3413 
L 3566 897 
L 2803 897 
L 1728 3413 
L 1728 0 
L 588 0 
L 588 4666 
z
" transform="scale(0.015625)"/>
       <path id="DejaVuSans-Bold-6c" d="M 538 4863 
L 1656 4863 
L 1656 0 
L 538 0 
L 538 4863 
z
" transform="scale(0.015625)"/>
       <path id="DejaVuSans-Bold-20" transform="scale(0.015625)"/>
      </defs>
      <use xlink:href="#DejaVuSans-Bold-4d"/>
      <use xlink:href="#DejaVuSans-Bold-6f" x="99.511719"/>
      <use xlink:href="#DejaVuSans-Bold-64" x="168.212891"/>
      <use xlink:href="#DejaVuSans-Bold-65" x="239.794922"/>
      <use xlink:href="#DejaVuSans-Bold-6c" x="307.617188"/>
      <use xlink:href="#DejaVuSans-Bold-20" x="341.894531"/>
      <use xlink:href="#DejaVuSans-Bold-64" x="376.708984"/>
      <use xlink:href="#DejaVuSans-Bold-69" x="448.291016"/>
      <use xlink:href="#DejaVuSans-Bold-73" x="482.568359"/>
      <use xlink:href="#DejaVuSans-Bold-74" x="542.089844"/>
      <use xlink:href="#DejaVuSans-Bold-69" x="589.892578"/>
      <use xlink:href="#DejaVuSans-Bold-6c" x="624.169922"/>
      <use xlink:href="#DejaVuSans-Bold-6c" x="658.447266"/>
      <use xlink:href="#DejaVuSans-Bold-61" x="692.724609"/>
      <use xlink:href="#DejaVuSans-Bold-74" x="760.205078"/>
      <use xlink:href="#DejaVuSans-Bold-69" x="808.007812"/>
      <use xlink:href="#DejaVuSans-Bold-6f" x="842.285156"/>
      <use xlink:href="#DejaVuSans-Bold-6e" x="910.986328"/>
     </g>
    </g>
    <g id="patch_63">
     <path d="M 558.975625 41.604219 
L 580.975625 41.604219 
L 580.975625 33.904219 
L 558.975625 33.904219 
z
" style="fill: #d98b5f; stroke: #ffffff; stroke-linejoin: miter"/>
    </g>
    <g id="text_15">
     <!-- Lore -->
     <g style="fill: #262626" transform="translate(589.775625 41.604219) scale(0.11 -0.11)">
      <defs>
       <path id="DejaVuSans-Bold-4c" d="M 588 4666 
L 1791 4666 
L 1791 909 
L 3903 909 
L 3903 0 
L 588 0 
L 588 4666 
z
" transform="scale(0.015625)"/>
       <path id="DejaVuSans-Bold-72" d="M 3138 2547 
Q 2991 2616 2845 2648 
Q 2700 2681 2553 2681 
Q 2122 2681 1889 2404 
Q 1656 2128 1656 1613 
L 1656 0 
L 538 0 
L 538 3500 
L 1656 3500 
L 1656 2925 
Q 1872 3269 2151 3426 
Q 2431 3584 2822 3584 
Q 2878 3584 2943 3579 
Q 3009 3575 3134 3559 
L 3138 2547 
z
" transform="scale(0.015625)"/>
      </defs>
      <use xlink:href="#DejaVuSans-Bold-4c"/>
      <use xlink:href="#DejaVuSans-Bold-6f" x="63.720703"/>
      <use xlink:href="#DejaVuSans-Bold-72" x="132.421875"/>
      <use xlink:href="#DejaVuSans-Bold-65" x="181.738281"/>
     </g>
    </g>
    <g id="patch_64">
     <path d="M 558.975625 57.750156 
L 580.975625 57.750156 
L 580.975625 50.050156 
L 558.975625 50.050156 
z
" style="fill: #75bf71; stroke: #ffffff; stroke-linejoin: miter"/>
    </g>
    <g id="text_16">
     <!-- Anchor -->
     <g style="fill: #262626" transform="translate(589.775625 57.750156) scale(0.11 -0.11)">
      <defs>
       <path id="DejaVuSans-Bold-68" d="M 4056 2131 
L 4056 0 
L 2931 0 
L 2931 347 
L 2931 1625 
Q 2931 2084 2911 2256 
Q 2891 2428 2841 2509 
Q 2775 2619 2662 2680 
Q 2550 2741 2406 2741 
Q 2056 2741 1856 2470 
Q 1656 2200 1656 1722 
L 1656 0 
L 538 0 
L 538 4863 
L 1656 4863 
L 1656 2988 
Q 1909 3294 2193 3439 
Q 2478 3584 2822 3584 
Q 3428 3584 3742 3212 
Q 4056 2841 4056 2131 
z
" transform="scale(0.015625)"/>
      </defs>
      <use xlink:href="#DejaVuSans-Bold-41"/>
      <use xlink:href="#DejaVuSans-Bold-6e" x="77.392578"/>
      <use xlink:href="#DejaVuSans-Bold-63" x="148.583984"/>
      <use xlink:href="#DejaVuSans-Bold-68" x="207.861328"/>
      <use xlink:href="#DejaVuSans-Bold-6f" x="279.052734"/>
      <use xlink:href="#DejaVuSans-Bold-72" x="347.753906"/>
     </g>
    </g>
    <g id="patch_65">
     <path d="M 558.975625 73.896094 
L 580.975625 73.896094 
L 580.975625 66.196094 
L 558.975625 66.196094 
z
" style="fill: #c76e6e; stroke: #ffffff; stroke-linejoin: miter"/>
    </g>
    <g id="text_17">
     <!-- Lime -->
     <g style="fill: #262626" transform="translate(589.775625 73.896094) scale(0.11 -0.11)">
      <defs>
       <path id="DejaVuSans-Bold-6d" d="M 3781 2919 
Q 3994 3244 4286 3414 
Q 4578 3584 4928 3584 
Q 5531 3584 5847 3212 
Q 6163 2841 6163 2131 
L 6163 0 
L 5038 0 
L 5038 1825 
Q 5041 1866 5042 1909 
Q 5044 1953 5044 2034 
Q 5044 2406 4934 2573 
Q 4825 2741 4581 2741 
Q 4263 2741 4089 2478 
Q 3916 2216 3909 1719 
L 3909 0 
L 2784 0 
L 2784 1825 
Q 2784 2406 2684 2573 
Q 2584 2741 2328 2741 
Q 2006 2741 1831 2477 
Q 1656 2213 1656 1722 
L 1656 0 
L 531 0 
L 531 3500 
L 1656 3500 
L 1656 2988 
Q 1863 3284 2130 3434 
Q 2397 3584 2719 3584 
Q 3081 3584 3359 3409 
Q 3638 3234 3781 2919 
z
" transform="scale(0.015625)"/>
      </defs>
      <use xlink:href="#DejaVuSans-Bold-4c"/>
      <use xlink:href="#DejaVuSans-Bold-69" x="63.720703"/>
      <use xlink:href="#DejaVuSans-Bold-6d" x="97.998047"/>
      <use xlink:href="#DejaVuSans-Bold-65" x="202.197266"/>
     </g>
    </g>
    <g id="patch_66">
     <path d="M 558.975625 90.042031 
L 580.975625 90.042031 
L 580.975625 82.342031 
L 558.975625 82.342031 
z
" style="fill: #9475ab; stroke: #ffffff; stroke-linejoin: miter"/>
    </g>
    <g id="text_18">
     <!-- Shapley -->
     <g style="fill: #262626" transform="translate(589.775625 90.042031) scale(0.11 -0.11)">
      <defs>
       <path id="DejaVuSans-Bold-53" d="M 3834 4519 
L 3834 3531 
Q 3450 3703 3084 3790 
Q 2719 3878 2394 3878 
Q 1963 3878 1756 3759 
Q 1550 3641 1550 3391 
Q 1550 3203 1689 3098 
Q 1828 2994 2194 2919 
L 2706 2816 
Q 3484 2659 3812 2340 
Q 4141 2022 4141 1434 
Q 4141 663 3683 286 
Q 3225 -91 2284 -91 
Q 1841 -91 1394 -6 
Q 947 78 500 244 
L 500 1259 
Q 947 1022 1364 901 
Q 1781 781 2169 781 
Q 2563 781 2772 912 
Q 2981 1044 2981 1288 
Q 2981 1506 2839 1625 
Q 2697 1744 2272 1838 
L 1806 1941 
Q 1106 2091 782 2419 
Q 459 2747 459 3303 
Q 459 4000 909 4375 
Q 1359 4750 2203 4750 
Q 2588 4750 2994 4692 
Q 3400 4634 3834 4519 
z
" transform="scale(0.015625)"/>
       <path id="DejaVuSans-Bold-70" d="M 1656 506 
L 1656 -1331 
L 538 -1331 
L 538 3500 
L 1656 3500 
L 1656 2988 
Q 1888 3294 2169 3439 
Q 2450 3584 2816 3584 
Q 3463 3584 3878 3070 
Q 4294 2556 4294 1747 
Q 4294 938 3878 423 
Q 3463 -91 2816 -91 
Q 2450 -91 2169 54 
Q 1888 200 1656 506 
z
M 2400 2772 
Q 2041 2772 1848 2508 
Q 1656 2244 1656 1747 
Q 1656 1250 1848 986 
Q 2041 722 2400 722 
Q 2759 722 2948 984 
Q 3138 1247 3138 1747 
Q 3138 2247 2948 2509 
Q 2759 2772 2400 2772 
z
" transform="scale(0.015625)"/>
      </defs>
      <use xlink:href="#DejaVuSans-Bold-53"/>
      <use xlink:href="#DejaVuSans-Bold-68" x="72.021484"/>
      <use xlink:href="#DejaVuSans-Bold-61" x="143.212891"/>
      <use xlink:href="#DejaVuSans-Bold-70" x="210.693359"/>
      <use xlink:href="#DejaVuSans-Bold-6c" x="282.275391"/>
      <use xlink:href="#DejaVuSans-Bold-65" x="316.552734"/>
      <use xlink:href="#DejaVuSans-Bold-79" x="384.375"/>
     </g>
    </g>
    <g id="patch_67">
     <path d="M 558.975625 106.273906 
L 580.975625 106.273906 
L 580.975625 98.573906 
L 558.975625 98.573906 
z
" style="fill: #826246; stroke: #ffffff; stroke-linejoin: miter"/>
    </g>
    <g id="text_19">
     <!-- NAM -->
     <g style="fill: #262626" transform="translate(589.775625 106.273906) scale(0.11 -0.11)">
      <use xlink:href="#DejaVuSans-Bold-4e"/>
      <use xlink:href="#DejaVuSans-Bold-41" x="83.691406"/>
      <use xlink:href="#DejaVuSans-Bold-4d" x="161.083984"/>
     </g>
    </g>
    <g id="patch_68">
     <path d="M 558.975625 122.419844 
L 580.975625 122.419844 
L 580.975625 114.719844 
L 558.975625 114.719844 
z
" style="fill: #d08abb; stroke: #ffffff; stroke-linejoin: miter"/>
    </g>
    <g id="text_20">
     <!-- ENRL -->
     <g style="fill: #262626" transform="translate(589.775625 122.419844) scale(0.11 -0.11)">
      <defs>
       <path id="DejaVuSans-Bold-52" d="M 2297 2597 
Q 2675 2597 2839 2737 
Q 3003 2878 3003 3200 
Q 3003 3519 2839 3656 
Q 2675 3794 2297 3794 
L 1791 3794 
L 1791 2597 
L 2297 2597 
z
M 1791 1766 
L 1791 0 
L 588 0 
L 588 4666 
L 2425 4666 
Q 3347 4666 3776 4356 
Q 4206 4047 4206 3378 
Q 4206 2916 3982 2619 
Q 3759 2322 3309 2181 
Q 3556 2125 3751 1926 
Q 3947 1728 4147 1325 
L 4800 0 
L 3519 0 
L 2950 1159 
Q 2778 1509 2601 1637 
Q 2425 1766 2131 1766 
L 1791 1766 
z
" transform="scale(0.015625)"/>
      </defs>
      <use xlink:href="#DejaVuSans-Bold-45"/>
      <use xlink:href="#DejaVuSans-Bold-4e" x="68.310547"/>
      <use xlink:href="#DejaVuSans-Bold-52" x="152.001953"/>
      <use xlink:href="#DejaVuSans-Bold-4c" x="229.003906"/>
     </g>
    </g>
    <g id="patch_69">
     <path d="M 558.975625 138.565781 
L 580.975625 138.565781 
L 580.975625 130.865781 
L 558.975625 130.865781 
z
" style="fill: #797979; stroke: #ffffff; stroke-linejoin: miter"/>
    </g>
    <g id="text_21">
     <!-- Discrete -->
     <g style="fill: #262626" transform="translate(589.775625 138.565781) scale(0.11 -0.11)">
      <use xlink:href="#DejaVuSans-Bold-44"/>
      <use xlink:href="#DejaVuSans-Bold-69" x="83.007812"/>
      <use xlink:href="#DejaVuSans-Bold-73" x="117.285156"/>
      <use xlink:href="#DejaVuSans-Bold-63" x="176.806641"/>
      <use xlink:href="#DejaVuSans-Bold-72" x="236.083984"/>
      <use xlink:href="#DejaVuSans-Bold-65" x="285.400391"/>
      <use xlink:href="#DejaVuSans-Bold-74" x="353.222656"/>
      <use xlink:href="#DejaVuSans-Bold-65" x="401.025391"/>
     </g>
    </g>
   </g>
  </g>
 </g>
 <defs>
  <clipPath id="p92cbc66112">
   <rect x="55.615625" y="7.2" width="493.46" height="167.62"/>
  </clipPath>
 </defs>
 <defs>
  <pattern id="h070d62c7f1" patternUnits="userSpaceOnUse" x="0" y="0" width="72" height="72">
   <rect x="0" y="0" width="73" height="73" fill="#826246"/>
   <path d="M -36 36 
L 36 -36 
M -33 39 
L 39 -33 
M -30 42 
L 42 -30 
M -27 45 
L 45 -27 
M -24 48 
L 48 -24 
M -21 51 
L 51 -21 
M -18 54 
L 54 -18 
M -15 57 
L 57 -15 
M -12 60 
L 60 -12 
M -9 63 
L 63 -9 
M -6 66 
L 66 -6 
M -3 69 
L 69 -3 
M 0 72 
L 72 0 
M 3 75 
L 75 3 
M 6 78 
L 78 6 
M 9 81 
L 81 9 
M 12 84 
L 84 12 
M 15 87 
L 87 15 
M 18 90 
L 90 18 
M 21 93 
L 93 21 
M 24 96 
L 96 24 
M 27 99 
L 99 27 
M 30 102 
L 102 30 
M 33 105 
L 105 33 
M 36 108 
L 108 36 
" style="fill: #ffffff; stroke: #ffffff; stroke-width: 1.0; stroke-linecap: butt; stroke-linejoin: miter"/>
  </pattern>
  <pattern id="hf62fe01990" patternUnits="userSpaceOnUse" x="0" y="0" width="72" height="72">
   <rect x="0" y="0" width="73" height="73" fill="#d08abb"/>
   <path d="M -36 36 
L 36 -36 
M -33 39 
L 39 -33 
M -30 42 
L 42 -30 
M -27 45 
L 45 -27 
M -24 48 
L 48 -24 
M -21 51 
L 51 -21 
M -18 54 
L 54 -18 
M -15 57 
L 57 -15 
M -12 60 
L 60 -12 
M -9 63 
L 63 -9 
M -6 66 
L 66 -6 
M -3 69 
L 69 -3 
M 0 72 
L 72 0 
M 3 75 
L 75 3 
M 6 78 
L 78 6 
M 9 81 
L 81 9 
M 12 84 
L 84 12 
M 15 87 
L 87 15 
M 18 90 
L 90 18 
M 21 93 
L 93 21 
M 24 96 
L 96 24 
M 27 99 
L 99 27 
M 30 102 
L 102 30 
M 33 105 
L 105 33 
M 36 108 
L 108 36 
" style="fill: #ffffff; stroke: #ffffff; stroke-width: 1.0; stroke-linecap: butt; stroke-linejoin: miter"/>
  </pattern>
  <pattern id="h2c9c4d1357" patternUnits="userSpaceOnUse" x="0" y="0" width="72" height="72">
   <rect x="0" y="0" width="73" height="73" fill="#797979"/>
   <path d="M -36 36 
L 36 -36 
M -33 39 
L 39 -33 
M -30 42 
L 42 -30 
M -27 45 
L 45 -27 
M -24 48 
L 48 -24 
M -21 51 
L 51 -21 
M -18 54 
L 54 -18 
M -15 57 
L 57 -15 
M -12 60 
L 60 -12 
M -9 63 
L 63 -9 
M -6 66 
L 66 -6 
M -3 69 
L 69 -3 
M 0 72 
L 72 0 
M 3 75 
L 75 3 
M 6 78 
L 78 6 
M 9 81 
L 81 9 
M 12 84 
L 84 12 
M 15 87 
L 87 15 
M 18 90 
L 90 18 
M 21 93 
L 93 21 
M 24 96 
L 96 24 
M 27 99 
L 99 27 
M 30 102 
L 102 30 
M 33 105 
L 105 33 
M 36 108 
L 108 36 
" style="fill: #ffffff; stroke: #ffffff; stroke-width: 1.0; stroke-linecap: butt; stroke-linejoin: miter"/>
  </pattern>
 </defs>
</svg>
